<svg width="24" height="24" viewBox="0 0 24 24" fill="none" xmlns="http://www.w3.org/2000/svg">
<path d="M11.9998 13.03C12.9857 13.03 13.7848 12.2309 13.7848 11.245C13.7848 10.2592 12.9857 9.46002 11.9998 9.46002C11.014 9.46002 10.2148 10.2592 10.2148 11.245C10.2148 12.2309 11.014 13.03 11.9998 13.03Z" fill="white"/>
<path d="M7.00223 14.794L6.60723 14.693C3.67323 13.952 1.99023 12.692 1.99023 11.241C1.99023 9.78999 3.67423 8.52999 6.60723 7.78899L7.00223 7.68899L7.11323 8.07999C7.40975 9.10369 7.78969 10.1014 8.24923 11.063L8.33423 11.241L8.24923 11.419C7.78923 12.382 7.40823 13.38 7.11323 14.404L7.00223 14.794ZM6.42523 8.69899C4.19623 9.32699 2.82723 10.285 2.82723 11.241C2.82723 12.195 4.19523 13.154 6.42523 13.781C6.69857 12.9117 7.0269 12.065 7.41023 11.241C7.02447 10.417 6.69537 9.56774 6.42523 8.69899ZM16.9972 14.794L16.8872 14.402C16.59 13.3781 16.2098 12.3801 15.7502 11.418L15.6652 11.241L15.7502 11.062C16.2102 10.101 16.5892 9.10199 16.8872 8.07799L16.9972 7.68799L17.3922 7.78799C20.3272 8.52899 22.0092 9.78799 22.0092 11.241C22.0092 12.694 20.3262 13.952 17.3922 14.693L16.9972 14.794ZM16.5872 11.241C16.9872 12.107 17.3202 12.959 17.5742 13.781C19.8042 13.154 21.1732 12.195 21.1732 11.241C21.1732 10.285 19.8052 9.32799 17.5742 8.69899C17.3007 9.56681 16.971 10.4159 16.5872 11.241Z" fill="white"/>
<path d="M6.41927 8.695L6.30927 8.305C5.48327 5.397 5.73327 3.314 6.99627 2.588C8.23127 1.873 10.2183 2.718 12.2993 4.853L12.5833 5.145L12.2993 5.436C11.5611 6.2055 10.8856 7.0328 10.2793 7.91L10.1663 8.072L9.97027 8.088C8.90603 8.17313 7.85033 8.34334 6.81327 8.597L6.41927 8.695ZM8.00127 3.166C7.7766 3.166 7.58027 3.21433 7.41227 3.311C6.58427 3.788 6.43827 5.449 7.00827 7.691C7.8996 7.493 8.79827 7.354 9.70427 7.274C10.2287 6.52995 10.8009 5.82079 11.4173 5.151C10.1143 3.884 8.88427 3.166 8.00127 3.166ZM15.9983 20.15C14.8103 20.15 13.2843 19.254 11.7003 17.628L11.4173 17.337L11.7003 17.047C12.4389 16.2766 13.1148 15.4483 13.7213 14.57L13.8333 14.41L14.0273 14.391C15.092 14.3088 16.1483 14.1392 17.1853 13.884L17.5803 13.784L17.6913 14.175C18.5133 17.081 18.2643 19.167 17.0033 19.893C16.6967 20.0656 16.35 20.1542 15.9983 20.15ZM12.5833 17.33C13.8853 18.597 15.1163 19.316 15.9983 19.316C16.2243 19.3153 16.4206 19.267 16.5873 19.171C17.4163 18.693 17.5633 17.029 16.9913 14.787C16.1013 14.9863 15.2019 15.126 14.2933 15.206C13.771 15.9512 13.1998 16.6607 12.5833 17.33Z" fill="white"/>
<path d="M17.5795 8.69501L17.1845 8.59601C16.1476 8.34015 15.0913 8.16991 14.0265 8.08701L13.8325 8.07001L13.7205 7.90801C13.1153 7.02973 12.4394 6.20231 11.6995 5.43401L11.4165 5.14301L11.6995 4.85301C13.7795 2.71901 15.7655 1.87401 17.0025 2.58801C18.2645 3.31501 18.5155 5.39801 17.6905 8.30501L17.5795 8.69501ZM14.2925 7.27401C15.2465 7.35901 16.1505 7.50201 16.9905 7.69101C17.5615 5.44901 17.4155 3.78801 16.5865 3.31001C15.7625 2.83301 14.2115 3.56301 12.5825 5.15101C13.1999 5.82101 13.7699 6.52868 14.2925 7.27401ZM8.00052 20.15C7.64875 20.1542 7.30209 20.0656 6.99552 19.893C5.73252 19.167 5.48252 17.082 6.30752 14.175L6.41552 13.784L6.81052 13.884C7.77452 14.127 8.83652 14.298 9.96852 14.391L10.1625 14.41L10.2755 14.57C10.8795 15.448 11.5555 16.277 12.2955 17.047L12.5795 17.337L12.2955 17.628C10.7125 19.255 9.18652 20.15 8.00052 20.15ZM7.00752 14.788C6.43752 17.03 6.58352 18.694 7.41152 19.172C8.23652 19.642 9.78252 18.917 11.4165 17.33C10.8001 16.6602 10.2279 15.9511 9.70352 15.207C8.79672 15.1259 7.89615 14.986 7.00752 14.788Z" fill="white"/>
<path d="M12.0002 15.313C11.3132 15.313 10.6082 15.284 9.90016 15.225L9.70416 15.208L9.59116 15.046C9.19219 14.4717 8.81655 13.8816 8.46516 13.277C8.11662 12.6706 7.79269 12.0505 7.49416 11.418L7.41016 11.241L7.49416 11.062C7.79282 10.43 8.11649 9.81066 8.46516 9.204C8.81216 8.608 9.19116 8.012 9.59116 7.434L9.70416 7.274L9.90016 7.256C11.297 7.1383 12.7013 7.1383 14.0982 7.256L14.2922 7.275L14.4052 7.435C15.2055 8.58341 15.908 9.797 16.5052 11.063L16.5882 11.242L16.5052 11.419C15.908 12.685 15.2055 13.8986 14.4052 15.047L14.2922 15.209L14.0982 15.226C13.3922 15.283 12.6862 15.313 12.0002 15.313ZM10.1662 14.409C11.4012 14.502 12.5992 14.502 13.8332 14.409C14.5219 13.4001 15.1343 12.3412 15.6652 11.241C15.136 10.1399 14.5236 9.08083 13.8332 8.073C12.6126 7.97948 11.3867 7.97948 10.1662 8.073C9.47575 9.08083 8.8633 10.1399 8.33416 11.241C8.86661 12.3403 9.47892 13.3992 10.1662 14.409Z" fill="white"/>
</svg>
