<svg width="24" height="24" viewBox="0 0 24 24" fill="none" xmlns="http://www.w3.org/2000/svg">
<path d="M11.9998 2.24701C9.62519 2.24696 7.32809 3.09189 5.51952 4.63061C3.71096 6.16934 2.50896 8.30142 2.12863 10.6453C1.74831 12.9892 2.21447 15.392 3.4437 17.4237C4.67293 19.4553 6.585 20.9832 8.83776 21.734C9.33776 21.822 9.52476 21.522 9.52476 21.259C9.52476 21.022 9.51276 20.234 9.51276 19.397C6.99976 19.859 6.34976 18.784 6.14976 18.222C5.92776 17.6748 5.57598 17.1899 5.12476 16.809C4.77476 16.622 4.27476 16.159 5.11176 16.147C5.43166 16.1815 5.73851 16.2927 6.00626 16.4712C6.27401 16.6496 6.49476 16.89 6.64976 17.172C6.78649 17.4177 6.97035 17.634 7.19082 17.8085C7.41129 17.9829 7.66402 18.1122 7.93454 18.1889C8.20506 18.2655 8.48804 18.288 8.76727 18.2551C9.04649 18.2222 9.31648 18.1345 9.56176 17.997C9.60471 17.4883 9.83152 17.0126 10.1998 16.659C7.97476 16.409 5.64976 15.547 5.64976 11.722C5.6364 10.7281 6.00304 9.76665 6.67476 9.03401C6.36968 8.17013 6.40544 7.22244 6.77476 6.38401C6.77476 6.38401 7.61176 6.12201 9.52476 7.40901C11.1611 6.95911 12.8885 6.95911 14.5248 7.40901C16.4368 6.10901 17.2748 6.38401 17.2748 6.38401C17.6441 7.22244 17.6798 8.17013 17.3748 9.03401C18.0491 9.76502 18.4162 10.7276 18.3998 11.722C18.3998 15.559 16.0618 16.409 13.8378 16.659C14.0761 16.9011 14.2597 17.1915 14.376 17.5107C14.4923 17.8299 14.5386 18.1704 14.5118 18.509C14.5118 19.847 14.4998 20.922 14.4998 21.259C14.4998 21.522 14.6868 21.834 15.1868 21.734C17.4354 20.9769 19.3417 19.4454 20.5656 17.4128C21.7894 15.3801 22.2511 12.9787 21.8681 10.6372C21.4852 8.29567 20.2826 6.16644 18.475 4.62959C16.6673 3.09274 14.3724 2.2483 11.9998 2.24701Z" fill="white"/>
</svg>
