<svg width="24" height="24" viewBox="0 0 24 24" fill="none" xmlns="http://www.w3.org/2000/svg">
<path d="M15.1395 2C13.7995 2.12 12.0395 2.59 9.86953 3.43C9.27953 3.87 8.59953 4.3 7.83953 4.72V4.85C7.89953 4.85 7.95953 4.81 8.03953 4.77C8.12953 4.76 8.18953 4.79 8.18953 4.88L8.31953 4.8L8.38953 4.79L8.39953 4.86C8.40953 4.92 7.92953 5.29 6.99953 5.96L7.05953 6.09H6.99953L6.83953 6.04C6.83953 6.09 6.77953 6.11 6.63953 6.12L6.64953 6.19L6.80953 6.37C6.74953 6.37 6.67953 6.36 6.59953 6.32C6.28953 6.35 5.99953 6.58 5.68953 7L5.76953 7.12C6.02953 6.88 6.17953 6.76 6.21953 6.76L6.23953 6.95C6.19953 6.95 6.11953 7 6.03953 7.03L6.19953 7.27C6.49953 6.93 6.85953 6.64 7.23953 6.41C7.42953 6.46 7.52953 6.5 7.52953 6.58L7.66953 6.57C8.68953 5.81 9.70953 5.27 10.7095 4.93L10.7195 5.06C10.5295 5.34 10.3995 5.5 10.3295 5.5C10.3395 5.59 10.3795 5.67 10.4295 5.74C10.4495 5.92 9.99953 7.06 9.06953 9.19C6.94953 14.13 5.18953 17.78 3.76953 20.16C3.76953 20.2 3.79953 20.27 3.84953 20.35C4.19953 20.26 4.41953 20.18 4.49953 20.1L4.59953 20.09L4.60953 20.22L4.73953 20.21L4.87953 20.13C4.87953 20.18 4.92953 20.19 4.99953 20.18L5.02953 20.31C5.02953 20.45 4.95953 20.65 4.79953 20.92C4.64953 21.08 4.49953 21.42 4.33953 21.94V22H4.46953C5.03953 21.35 5.49953 20.72 5.77953 20.11C7.43953 19.62 8.70953 19.15 9.58953 18.67C10.4695 18.6 11.1495 18.37 11.6095 18L11.5995 17.91L11.2695 18H11.1895L11.1795 17.95C11.8295 17.85 12.2795 17.7 12.4995 17.5C13.7895 16.54 14.7395 15.85 15.3895 15.44C17.3895 13.97 18.3295 12.55 18.2195 11.21C18.2095 11.07 17.7595 10.5 16.8995 9.56C16.8795 9.38 17.1895 9.12 17.7995 8.77L19.5295 7.24C19.9195 6.74 20.1495 5.94 20.2295 4.83L20.1995 4.57C20.1395 3.79 19.5795 3.16 18.4995 2.68C17.8795 2.25 16.7595 2.03 15.1395 2ZM17.2395 2.87C18.5295 2.92 19.1895 3.14 19.2295 3.55L19.1795 3.68L17.2395 2.87ZM15.9995 3.96C16.8895 3.95 17.3495 4.18 17.3995 4.68L17.4995 4.67V4.34L17.6395 4.33C17.9995 4.5 18.1595 4.74 18.1795 5C18.1995 5.2 18.0995 5.42 17.8895 5.69C17.7995 5.7 17.7495 5.64 17.7395 5.5H17.5995L17.5595 5.91C16.9995 6.78 16.5595 7.23 16.2995 7.26C16.0595 7.58 15.9095 7.75 15.8495 7.75C15.6695 7.97 15.1695 8.35 14.3495 8.87C14.0795 8.9 13.0695 9.28 11.3395 10.04C11.2495 10 11.1595 10 11.0595 10L11.0495 9.88C11.0295 9.62 11.1395 9.31 11.3895 8.92C11.4995 8.21 11.6695 7.8 11.8295 7.7L13.2795 4.44C13.2695 4.24 13.5695 4.09 14.2095 4L14.4195 3.96L14.4395 4.15C15.0595 4.05 15.4495 4 15.5995 4C15.7395 3.97 15.8795 3.96 15.9995 3.96ZM18.9995 4.29H19.0395C19.1595 4.3 19.2795 4.5 19.4095 4.91L19.4195 5.03C19.3495 5.04 19.2195 4.83 19.0295 4.41L18.9995 4.29ZM10.8195 6.36H10.8795L10.8995 6.55C10.8395 6.56 10.7495 6.65 10.6495 6.83L10.6395 6.7C10.7595 6.55 10.8195 6.43 10.8195 6.36ZM6.66953 6.46L6.67953 6.5C6.62953 6.5 6.55953 6.56 6.49953 6.6L6.40953 6.61L6.38953 6.5L6.66953 6.46ZM10.2395 7.72L10.2595 8H10.1895L10.1595 7.73L10.2395 7.72ZM10.0695 8.19C10.0495 8.41 9.99953 8.5 9.88953 8.53L9.81953 8.54C9.89953 8.39 9.93953 8.29 9.92953 8.21L10.0695 8.19ZM9.77953 8.87L9.78953 8.93L9.66953 9.14L9.53953 9.15L9.52953 9.09C9.65953 9.08 9.71953 9 9.70953 8.88L9.77953 8.87ZM9.49953 9.5L9.44953 9.81H9.37953L9.35953 9.5H9.49953ZM16.5695 9.72L16.8495 9.89C16.8595 10 16.8195 10.03 16.7295 10.04C16.6442 9.97855 16.5442 9.94062 16.4395 9.93L16.4295 9.73L16.5695 9.72ZM10.9995 10.46L11.0295 10.58L10.7595 10.61L10.7495 10.5L10.9995 10.46ZM15.4995 10.91C15.6795 11 15.7795 11.09 15.7895 11.16L15.7995 11.22C15.6095 11.24 15.4495 11.14 15.2895 10.93L15.4995 10.91ZM17.6595 11.12C17.8095 11.18 17.8795 11.25 17.8895 11.31L17.9295 11.82C17.8695 11.96 17.8095 12.03 17.7395 12.03L17.6595 11.12ZM14.1595 11.18C14.8595 11.17 15.3995 11.33 15.7595 11.68L15.7895 11.94C15.4995 12.85 15.1295 13.38 14.7495 13.54L12.9995 14.93C11.6995 15.79 10.9995 16.21 10.8995 16.22C8.82953 17.36 7.53953 17.95 7.03953 18H6.95953C7.02953 17.76 7.94953 15.87 9.72953 12.33C10.4995 12.26 11.7595 11.89 13.4395 11.23L13.8495 11.19C13.9595 11.19 14.0595 11.18 14.1595 11.18ZM11.6195 11.59L11.6295 11.65L11.3495 11.67L11.3395 11.61L11.6195 11.59ZM7.25953 15.81C7.16953 16.26 7.07953 16.5 6.99953 16.5L6.96953 16.43C6.94953 16.2 7.04953 16 7.25953 15.81ZM13.1795 16.09L13.1895 16.21C13.1995 16.27 12.9995 16.43 12.5995 16.72C11.4395 17.29 10.7595 17.68 10.5595 17.88C9.29953 18.32 8.67953 18.59 8.68953 18.69C7.56953 19.14 6.83953 19.46 6.49953 19.66C6.40953 19.67 6.28953 19.63 6.12953 19.56C6.11953 19.34 6.20953 19.15 6.43953 19C6.62953 19 6.81953 19 6.99953 19.09C7.20953 19 7.56953 18.87 8.07953 18.74L8.06953 18.61L7.65953 18.65C7.70953 18.58 8.10953 18.4 8.85953 18.09L9.06953 18.07L9.07953 18.13C8.72953 18.16 8.52953 18.27 8.49953 18.46C8.49953 18.53 8.52953 18.58 8.61953 18.57C8.86953 18.39 8.99953 18.3 8.99953 18.27C9.49953 18.18 10.8995 17.44 13.1795 16.09ZM6.85953 16.69L6.86953 16.75C6.87953 16.84 6.82953 16.89 6.73953 16.9V16.84C6.72953 16.76 6.76953 16.71 6.85953 16.69ZM9.99953 17.5C10.0695 17.47 10.1195 17.5 10.1195 17.58C9.95953 17.6 9.64953 17.73 9.18953 18H9.11953L9.10953 17.87C9.43953 17.84 9.72953 17.71 9.96953 17.5H9.99953ZM6.94953 18.5L6.95953 18.58C6.89953 18.58 6.83953 18.61 6.74953 18.66L6.61953 18.67C6.60953 18.61 6.64953 18.55 6.73953 18.53L6.94953 18.5ZM5.34953 19.3L5.49953 19.36C5.43953 19.76 5.32953 19.96 5.12953 20C5.00058 19.9208 4.85068 19.8824 4.69953 19.89L4.67953 19.7C4.66953 19.62 4.71953 19.57 4.81953 19.55C4.89953 19.54 4.94953 19.6 4.95953 19.73C5.19953 19.44 5.32953 19.3 5.34953 19.3Z" fill="white"/>
</svg>
