<svg width="12" height="24" viewBox="0 0 12 24" fill="none" xmlns="http://www.w3.org/2000/svg">
<g clip-path="url(#clip0_47_1689)">
<path d="M11.0624 9.518C9.79942 3.958 6.82042 2.131 6.50042 1.432C6.22319 0.996662 5.98526 0.537517 5.78942 0.06L5.76742 0C5.76742 0.019 5.76742 0.031 5.76242 0.049V0.193V0.192V0.213L5.76342 0.224L5.76242 0.235V0.287L5.75342 0.337V0.4H5.74842V0.416H5.71242V0.473H5.70642V0.519H5.68242V0.583L5.65942 0.6L5.65442 0.607V0.629H5.64942V0.647H5.64342V0.692H5.63742V0.711H5.63242V0.729H5.62742V0.751H5.58242V0.766H5.57742V0.785H5.57242V0.8H5.56642V0.823H5.56142V0.836C5.54348 0.844821 5.52696 0.856281 5.51242 0.87L5.50342 0.88V0.938H5.49842V0.93H5.49342V0.94H5.48842V0.948H5.48342V0.97H5.42242V0.98H5.41242V1H5.38242V1.01H5.37742V1.016H5.36742V1.026H5.33742V1.032H5.33242V1.09H5.32642V1.1H5.32142V1.106H5.31642V1.112L5.30242 1.128L5.29042 1.138L5.25142 1.17L5.22942 1.187L5.18042 1.226L5.10642 1.288C5.05042 1.33467 4.98842 1.38767 4.92042 1.447C4.75109 1.59567 4.55109 1.785 4.32042 2.015L4.30542 2.03C1.98837 4.48685 0.660396 7.71294 0.576421 11.089V11.107C0.555761 11.4981 0.558099 11.8901 0.583421 12.281L0.582421 12.251V12.26C0.68494 13.9545 1.18364 15.6013 2.03842 17.068L2.01042 17.016C2.31842 17.556 2.62442 18.015 2.95842 18.451L2.93642 18.421C3.64659 19.3642 4.48193 20.2063 5.41942 20.924L5.45042 20.947C5.74378 21.8469 5.87912 22.7909 5.85042 23.737V23.726L6.49442 23.941C6.42114 23.0807 6.44092 22.215 6.55342 21.359L6.54742 21.42C6.61242 21.163 6.73342 20.94 6.89742 20.756L6.89642 20.758C7.19442 20.545 7.45542 20.334 7.70242 20.107L7.69642 20.113C7.71442 20.094 7.72442 20.077 7.74042 20.059C8.88222 18.9914 9.79225 17.7004 10.414 16.2661C11.0357 14.8319 11.3558 13.2852 11.3544 11.722C11.3531 10.92 11.2734 10.141 11.1154 9.385L11.1284 9.459L11.0624 9.518Z" fill="white"/>
</g>
<defs>
<clipPath id="clip0_47_1689">
<rect width="11" height="24" fill="white" transform="translate(0.5)"/>
</clipPath>
</defs>
</svg>
