<svg width="24" height="24" viewBox="0 0 24 24" fill="none" xmlns="http://www.w3.org/2000/svg">
<path d="M8.66748 8.667C7.78339 8.667 6.9355 8.31579 6.31034 7.69064C5.68519 7.06549 5.33398 6.2176 5.33398 5.3335C5.33398 4.4494 5.68519 3.60151 6.31034 2.97636C6.9355 2.35121 7.78339 2 8.66748 2H12.0005V8.667M8.66748 8.667H12.0005M8.66748 8.667C7.78352 8.667 6.93576 9.01815 6.3107 9.64321C5.68564 10.2683 5.33448 11.116 5.33448 12C5.33448 12.884 5.68564 13.7317 6.3107 14.3568C6.93576 14.9818 7.78352 15.333 8.66748 15.333H12.0005V8.667" stroke="white" stroke-width="1.5"/>
<path d="M18.668 12C18.668 12.8841 18.3168 13.732 17.6916 14.3571C17.0665 14.9823 16.2186 15.3335 15.3345 15.3335C14.4504 15.3335 13.6025 14.9823 12.9773 14.3571C12.3522 13.732 12.001 12.8841 12.001 12C12.001 11.1159 12.3522 10.268 12.9773 9.64286C13.6025 9.01771 14.4504 8.6665 15.3345 8.6665C16.2186 8.6665 17.0665 9.01771 17.6916 9.64286C18.3168 10.268 18.668 11.1159 18.668 12ZM8.66796 15.334H12.001V18.667C12.0008 19.3262 11.8051 19.9705 11.4388 20.5184C11.0724 21.0664 10.5518 21.4935 9.94275 21.7456C9.33371 21.9977 8.66359 22.0636 8.01711 21.9348C7.37064 21.8061 6.77685 21.4886 6.31082 21.0224C5.84479 20.5563 5.52746 19.9624 5.39893 19.3159C5.27041 18.6694 5.33647 17.9993 5.58877 17.3903C5.84106 16.7813 6.26826 16.2608 6.81635 15.8946C7.36444 15.5285 8.0088 15.334 8.66796 15.334Z" stroke="white" stroke-width="1.5"/>
<path d="M12 2H15.333C16.2171 2 17.065 2.35121 17.6901 2.97636C18.3153 3.60151 18.6665 4.4494 18.6665 5.3335C18.6665 6.2176 18.3153 7.06549 17.6901 7.69064C17.065 8.31579 16.2171 8.667 15.333 8.667H12V2Z" stroke="white" stroke-width="1.5"/>
</svg>
