<svg width="24" height="24" viewBox="0 0 24 24" fill="none" xmlns="http://www.w3.org/2000/svg">
<path d="M6 10H10M8 10V14M3 7H13V17H3V7Z" stroke="white" stroke-width="2" stroke-linecap="round" stroke-linejoin="round"/>
<path d="M8.10352 17C8.57352 19.274 10.5865 21 12.9995 21C14.3256 21 15.5974 20.4732 16.535 19.5355C17.4727 18.5979 17.9995 17.3261 17.9995 16V9M17.9995 9H12.9995M17.9995 9H21.9995V14C21.9995 15.0609 21.5781 16.0783 20.8279 16.8284C20.0778 17.5786 19.0604 18 17.9995 18" stroke="white" stroke-width="2" stroke-linecap="round" stroke-linejoin="round"/>
<path d="M13.0034 8.82999C13.6449 9.05594 14.3442 9.05719 14.9865 8.83354C15.6288 8.60988 16.1761 8.17459 16.5385 7.59906C16.901 7.02353 17.0571 6.34192 16.9813 5.666C16.9055 4.99009 16.6023 4.35999 16.1213 3.87905C15.6404 3.39811 15.0103 3.09487 14.3344 3.01906C13.6585 2.94326 12.9768 3.09938 12.4013 3.46183C11.8258 3.82428 11.3905 4.37155 11.1668 5.01387C10.9432 5.6562 10.9444 6.35547 11.1704 6.99699" stroke="white" stroke-width="2" stroke-linecap="round" stroke-linejoin="round"/>
<path d="M15.8301 8.36004C16.1668 8.66234 16.5794 8.86756 17.0236 8.95381C17.4679 9.04006 17.9272 9.00411 18.3526 8.84978C18.778 8.69546 19.1536 8.42855 19.4392 8.07753C19.7248 7.72651 19.9098 7.30455 19.9745 6.85664C20.0391 6.40873 19.9809 5.95168 19.8062 5.53424C19.6314 5.11679 19.3466 4.75461 18.9822 4.48633C18.6177 4.21804 18.1873 4.05371 17.7368 4.01087C17.2863 3.96802 16.8326 4.04826 16.4241 4.24304" stroke="white" stroke-width="2" stroke-linecap="round" stroke-linejoin="round"/>
</svg>
