<svg width="24" height="24" viewBox="0 0 24 24" fill="none" xmlns="http://www.w3.org/2000/svg">
<g clip-path="url(#clip0_122_984)">
<path fill-rule="evenodd" clip-rule="evenodd" d="M12.9549 0.893004C12.8295 0.767524 12.6806 0.667981 12.5167 0.600065C12.3529 0.532149 12.1772 0.497192 11.9999 0.497192C11.8225 0.497192 11.6468 0.532149 11.483 0.600065C11.3191 0.667981 11.1702 0.767524 11.0449 0.893004L8.23986 3.7C8.45886 3.908 8.66986 4.11 8.77986 4.22L11.0299 6.47C11.4497 6.26948 11.9214 6.20406 12.38 6.28274C12.8386 6.36142 13.2615 6.58034 13.5905 6.90934C13.9195 7.23835 14.1384 7.66127 14.2171 8.11985C14.2958 8.57844 14.2304 9.05014 14.0299 9.47L15.2799 10.72C15.7588 10.4911 16.3032 10.439 16.8169 10.5727C17.3306 10.7065 17.7804 11.0175 18.087 11.4509C18.3935 11.8842 18.5369 12.412 18.4919 12.9409C18.4469 13.4698 18.2163 13.9658 17.841 14.3411C17.4656 14.7164 16.9697 14.947 16.4408 14.992C15.9119 15.037 15.3841 14.8936 14.9507 14.5871C14.5174 14.2806 14.2063 13.8307 14.0726 13.317C13.9388 12.8034 13.991 12.2589 14.2199 11.78L12.9699 10.532C12.8984 10.5663 12.8249 10.5964 12.7499 10.622V14.379C13.2505 14.5559 13.6726 14.9042 13.9413 15.3622C14.2101 15.8202 14.3082 16.3585 14.2185 16.8819C14.1287 17.4052 13.8568 17.8801 13.4508 18.2224C13.0448 18.5646 12.5309 18.7524 11.9999 18.7524C11.4688 18.7524 10.9549 18.5646 10.5489 18.2224C10.1429 17.8801 9.871 17.4052 9.78125 16.8819C9.69149 16.3585 9.78966 15.8202 10.0584 15.3622C10.3272 14.9042 10.7492 14.5559 11.2499 14.379V10.623C10.9522 10.5178 10.6799 10.3512 10.4509 10.1339C10.2218 9.91664 10.041 9.65359 9.92031 9.36186C9.79959 9.07014 9.74161 8.75627 9.75014 8.44066C9.75868 8.12506 9.83354 7.81478 9.96986 7.53L7.71986 5.28C7.64586 5.207 7.42986 4.981 7.19986 4.739L0.893859 11.045C0.768378 11.1704 0.668835 11.3193 0.600919 11.4831C0.533004 11.647 0.498047 11.8226 0.498047 12C0.498047 12.1774 0.533004 12.353 0.600919 12.5169C0.668835 12.6808 0.768378 12.8296 0.893859 12.955L11.0449 23.105C11.1702 23.2305 11.3191 23.33 11.483 23.3979C11.6468 23.4659 11.8225 23.5008 11.9999 23.5008C12.1772 23.5008 12.3529 23.4659 12.5167 23.3979C12.6806 23.33 12.8295 23.2305 12.9549 23.105L23.1059 12.955C23.2313 12.8296 23.3309 12.6808 23.3988 12.5169C23.4667 12.353 23.5017 12.1774 23.5017 12C23.5017 11.8226 23.4667 11.647 23.3988 11.4831C23.3309 11.3193 23.2313 11.1704 23.1059 11.045L12.9549 0.893004ZM11.9999 15.75C11.8009 15.75 11.6102 15.829 11.4695 15.9697C11.3289 16.1103 11.2499 16.3011 11.2499 16.5C11.2499 16.6989 11.3289 16.8897 11.4695 17.0303C11.6102 17.171 11.8009 17.25 11.9999 17.25C12.1988 17.25 12.3895 17.171 12.5302 17.0303C12.6708 16.8897 12.7499 16.6989 12.7499 16.5C12.7499 16.3011 12.6708 16.1103 12.5302 15.9697C12.3895 15.829 12.1988 15.75 11.9999 15.75ZM12.7499 8.5C12.7499 8.69892 12.6708 8.88968 12.5302 9.03033C12.3895 9.17099 12.1988 9.25 11.9999 9.25C11.8009 9.25 11.6102 9.17099 11.4695 9.03033C11.3289 8.88968 11.2499 8.69892 11.2499 8.5C11.2499 8.30109 11.3289 8.11033 11.4695 7.96967C11.6102 7.82902 11.8009 7.75 11.9999 7.75C12.1988 7.75 12.3895 7.82902 12.5302 7.96967C12.6708 8.11033 12.7499 8.30109 12.7499 8.5ZM15.4999 12.75C15.4999 12.5511 15.5789 12.3603 15.7195 12.2197C15.8602 12.079 16.0509 12 16.2499 12C16.4488 12 16.6395 12.079 16.7802 12.2197C16.9208 12.3603 16.9999 12.5511 16.9999 12.75C16.9999 12.9489 16.9208 13.1397 16.7802 13.2803C16.6395 13.421 16.4488 13.5 16.2499 13.5C16.0509 13.5 15.8602 13.421 15.7195 13.2803C15.5789 13.1397 15.4999 12.9489 15.4999 12.75Z" fill="white"/>
</g>
<defs>
<clipPath id="clip0_122_984">
<rect width="24" height="24" fill="white"/>
</clipPath>
</defs>
</svg>
