<svg width="24" height="24" viewBox="0 0 24 24" fill="none" xmlns="http://www.w3.org/2000/svg">
<path d="M7.956 2.52406C8.917 2.25706 10.298 1.99406 12.001 1.99606C13.3663 1.99154 14.726 2.16979 16.044 2.52606C16.524 2.66006 16.901 2.79306 17.161 2.89606C17.304 2.9524 17.445 3.01343 17.584 3.07906C17.025 4.19906 17.624 3.09906 17.584 3.07906C17.7606 3.16853 17.8956 3.32418 17.9579 3.51206C18.0201 3.69995 18.0056 3.90483 17.9175 4.08206C17.8293 4.25928 17.6747 4.39447 17.4873 4.45816C17.2999 4.52185 17.0949 4.50887 16.917 4.42206H16.915L16.905 4.41705L16.851 4.39206C16.7721 4.35701 16.6924 4.32366 16.612 4.29205C16.295 4.169 15.9719 4.06219 15.644 3.97206C14.4557 3.65155 13.2298 3.49147 11.999 3.49606C10.7692 3.48833 9.54403 3.64744 8.357 3.96906C8.02944 4.05923 7.70669 4.16603 7.39 4.28906C7.29123 4.32845 7.19353 4.37047 7.097 4.41506L7.087 4.42006C6.9093 4.50957 6.70333 4.52482 6.51439 4.46247C6.32544 4.40011 6.16901 4.26525 6.0795 4.08756C5.98999 3.90986 5.97473 3.70389 6.03709 3.51494C6.09945 3.326 6.23431 3.16957 6.412 3.08006H6.414L6.417 3.07806L6.425 3.07406L6.45 3.06206L6.534 3.02306C6.60467 2.99039 6.70567 2.94772 6.837 2.89506C7.097 2.79206 7.475 2.65706 7.956 2.52406ZM6.416 20.9221H6.418L6.421 20.9241L6.429 20.9281L6.453 20.9391L6.537 20.9781C6.60767 21.0101 6.70867 21.0521 6.84 21.1041C7.1 21.2061 7.477 21.3391 7.957 21.4711C8.918 21.7361 10.297 21.9981 11.999 22.0001C13.3648 22.0076 14.7254 21.831 16.044 21.4751C16.524 21.3421 16.901 21.2071 17.162 21.1051C17.2926 21.0533 17.4217 20.9976 17.549 20.9381L17.574 20.9271L17.582 20.9231L17.585 20.9211C17.585 20.9211 17.587 20.9211 17.25 20.2501L17.587 20.9201C17.7595 20.8278 17.8891 20.6719 17.9483 20.4854C18.0074 20.299 17.9914 20.0968 17.9036 19.9221C17.8158 19.7473 17.6632 19.6137 17.4783 19.5498C17.2935 19.4859 17.091 19.4968 16.914 19.5801L16.904 19.5841L16.85 19.6091C16.7993 19.6331 16.7197 19.6664 16.611 19.7091C16.2943 19.8321 15.9716 19.9389 15.644 20.0291C14.793 20.2641 13.549 20.5021 12.001 20.5001C10.7701 20.5027 9.54417 20.343 8.355 20.0251C8.02714 19.9356 7.70405 19.8294 7.387 19.7071C7.28792 19.6683 7.18988 19.627 7.093 19.5831L7.083 19.5781C6.90477 19.4896 6.69871 19.4756 6.51014 19.5391C6.32158 19.6025 6.16595 19.7383 6.0775 19.9166C5.98905 20.0948 5.97502 20.3008 6.0385 20.4894C6.10199 20.678 6.23777 20.8336 6.416 20.9221ZM6.25 6.50006C5.65326 6.50006 5.08097 6.73711 4.65901 7.15907C4.23705 7.58102 4 8.15332 4 8.75006V15.2501C4 15.8468 4.23705 16.4191 4.65901 16.841C5.08097 17.263 5.65326 17.5001 6.25 17.5001H12.75C13.3467 17.5001 13.919 17.263 14.341 16.841C14.7629 16.4191 15 15.8468 15 15.2501V8.75006C15 8.15332 14.7629 7.58102 14.341 7.15907C13.919 6.73711 13.3467 6.50006 12.75 6.50006H6.25ZM19.27 16.3261L16 13.6011V10.4001L19.27 7.67806C19.3796 7.58679 19.5129 7.52866 19.6543 7.51047C19.7957 7.49227 19.9394 7.51477 20.0685 7.57534C20.1976 7.6359 20.3068 7.732 20.3832 7.85239C20.4596 7.97278 20.5001 8.11246 20.5 8.25506V15.7501C20.4999 15.8926 20.4593 16.0321 20.3828 16.1524C20.3063 16.2726 20.1971 16.3685 20.0681 16.429C19.939 16.4894 19.7954 16.5118 19.6541 16.4936C19.5127 16.4754 19.3795 16.4173 19.27 16.3261Z" fill="white"/>
</svg>
