<svg width="24" height="24" viewBox="0 0 24 24" fill="none" xmlns="http://www.w3.org/2000/svg">
<g clip-path="url(#clip0_122_988)">
<path d="M0.870168 18.257C0.622168 18.639 0.340168 19.132 0.107168 19.502C0.00487978 19.6741 -0.0257108 19.8796 0.0219815 20.0741C0.0696739 20.2686 0.191835 20.4366 0.362168 20.542L5.32717 23.596C5.41347 23.6492 5.50951 23.6847 5.60969 23.7005C5.70987 23.7162 5.81218 23.7119 5.91066 23.6877C6.00913 23.6635 6.10181 23.6199 6.18328 23.5595C6.26474 23.4991 6.33338 23.4231 6.38517 23.336C6.58417 23.004 6.83917 22.573 7.11817 22.115C9.08517 18.868 11.0632 19.262 14.6262 20.969L19.5832 23.306C19.6755 23.35 19.7757 23.375 19.8779 23.3795C19.9801 23.3841 20.0821 23.3681 20.178 23.3324C20.2739 23.2968 20.3616 23.2423 20.436 23.1721C20.5104 23.102 20.57 23.0176 20.6112 22.924L22.9752 17.578C23.0552 17.3945 23.06 17.1869 22.9886 16.9999C22.9171 16.8129 22.7752 16.6614 22.5932 16.578C20.9346 15.7985 19.2796 15.0115 17.6282 14.217C10.9112 10.97 5.22417 11.185 0.870168 18.257ZM23.1312 5.74296C23.3802 5.33796 23.6622 4.86796 23.8952 4.49296C23.9955 4.3212 24.0249 4.11707 23.9771 3.92399C23.9293 3.7309 23.8081 3.56406 23.6392 3.45896L18.6752 0.403957C18.5889 0.35071 18.4928 0.315176 18.3926 0.299429C18.2925 0.283682 18.1902 0.288035 18.0917 0.312236C17.9932 0.336436 17.9005 0.38 17.8191 0.440386C17.7376 0.500772 17.669 0.576773 17.6172 0.663957C17.3769 1.07493 17.1322 1.48328 16.8832 1.88896C14.9172 5.13496 12.9382 4.73896 9.37517 3.03496L4.43717 0.693957C4.34489 0.650115 4.24476 0.625225 4.14269 0.620759C4.04063 0.616294 3.93871 0.632344 3.84295 0.66796C3.7472 0.703576 3.65956 0.758034 3.58523 0.828113C3.51089 0.898192 3.45136 0.982469 3.41017 1.07596L1.04617 6.42196C0.966129 6.60545 0.961311 6.81303 1.03275 7.00004C1.10419 7.18706 1.24618 7.33856 1.42817 7.42196C2.46717 7.91196 4.53317 8.88896 6.39317 9.78296C13.0912 13.029 18.7852 12.812 23.1312 5.74296Z" fill="white"/>
</g>
<defs>
<clipPath id="clip0_122_988">
<rect width="24" height="24" fill="white"/>
</clipPath>
</defs>
</svg>
