<svg width="24" height="24" viewBox="0 0 24 24" fill="none" xmlns="http://www.w3.org/2000/svg">
<path d="M11.9997 3.5C11.5072 3.5 11.0196 3.597 10.5646 3.78545C10.1096 3.97391 9.69625 4.25013 9.34803 4.59835C8.99981 4.94657 8.72359 5.35997 8.53513 5.81494C8.34668 6.26991 8.24968 6.75754 8.24968 7.25C8.24968 7.74246 8.34668 8.23009 8.53513 8.68506C8.72359 9.14003 8.99981 9.55343 9.34803 9.90165C9.69625 10.2499 10.1096 10.5261 10.5646 10.7145C11.0196 10.903 11.5072 11 11.9997 11C12.9942 11 13.9481 10.6049 14.6513 9.90165C15.3546 9.19839 15.7497 8.24456 15.7497 7.25C15.7497 6.25544 15.3546 5.30161 14.6513 4.59835C13.9481 3.89509 12.9942 3.5 11.9997 3.5ZM6.99968 12.5C6.50007 12.4885 6.00319 12.5769 5.53824 12.7601C5.0733 12.9433 4.64966 13.2176 4.29223 13.5669C3.9348 13.9162 3.65079 14.3334 3.45688 14.794C3.26297 15.2546 3.16309 15.7493 3.16309 16.249C3.16309 16.7487 3.26297 17.2435 3.45688 17.704C3.65079 18.1646 3.9348 18.5818 4.29223 18.9311C4.64966 19.2804 5.0733 19.5547 5.53824 19.7379C6.00319 19.9211 6.50007 20.0095 6.99968 19.998C7.97899 19.9754 8.91056 19.5705 9.59518 18.8699C10.2798 18.1692 10.6631 17.2286 10.6631 16.249C10.6631 15.2694 10.2798 14.3288 9.59518 13.6281C8.91056 12.9275 7.97899 12.5226 6.99968 12.5ZM16.9997 12.5C16.5021 12.4919 16.008 12.5829 15.5459 12.7676C15.0839 12.9524 14.6633 13.2273 14.3085 13.5763C13.9538 13.9253 13.6721 14.3414 13.4798 14.8003C13.2875 15.2593 13.1884 15.7519 13.1884 16.2495C13.1884 16.7471 13.2875 17.2397 13.4798 17.6987C13.6721 18.1576 13.9538 18.5737 14.3085 18.9227C14.6633 19.2717 15.0839 19.5466 15.5459 19.7314C16.008 19.9161 16.5021 20.0071 16.9997 19.999C17.9835 19.9829 18.9216 19.5808 19.6117 18.8794C20.3017 18.178 20.6884 17.2335 20.6884 16.2495C20.6884 15.2655 20.3017 14.321 19.6117 13.6196C18.9216 12.9182 17.9835 12.5161 16.9997 12.5Z" fill="white"/>
</svg>
