<svg width="24" height="24" viewBox="0 0 24 24" fill="none" xmlns="http://www.w3.org/2000/svg">
<path d="M16.8047 1C15.9245 1.00824 15.0493 1.13265 14.2017 1.37L14.1417 1.388C13.608 1.29649 13.0681 1.24601 12.5267 1.237C11.4137 1.218 10.4567 1.48 9.68669 1.917C8.92669 1.661 7.35069 1.22 5.68969 1.308C4.53269 1.369 3.27069 1.71 2.33569 2.668C1.40269 3.626 0.909694 5.108 1.01369 7.125C1.04169 7.682 1.20469 8.589 1.47669 9.765C1.74669 10.94 2.12869 12.315 2.60369 13.57C3.07869 14.825 3.59969 15.954 4.41369 16.72C4.81969 17.104 5.37869 17.427 6.03769 17.4C6.50069 17.382 6.91969 17.185 7.28069 16.894C7.45669 17.119 7.64469 17.217 7.81569 17.308C8.03069 17.422 8.24069 17.5 8.45769 17.552C9.05862 17.7061 9.6845 17.737 10.2977 17.643C10.5647 17.6 10.8457 17.516 11.1257 17.396C11.1357 17.698 11.1477 17.994 11.1607 18.294C11.1987 19.244 11.2237 20.121 11.5177 20.89C11.5647 21.016 11.6937 21.663 12.2047 22.234C12.7147 22.806 13.7147 23.162 14.8527 22.926C15.6557 22.759 16.6777 22.458 17.3557 21.522C18.0257 20.596 18.3287 19.268 18.3887 17.113C18.4037 16.997 18.4217 16.898 18.4407 16.805L18.6007 16.819H18.6187C19.4757 16.857 20.4057 16.739 21.1827 16.389C21.8707 16.079 22.3907 15.767 22.7697 15.212C22.8647 15.075 22.9687 14.909 22.9967 14.622C23.0247 14.337 22.8567 13.889 22.5757 13.683C22.0127 13.269 21.6597 13.426 21.2807 13.503C20.9074 13.583 20.5287 13.6273 20.1447 13.636C21.2377 11.852 22.0207 9.956 22.4677 8.278C22.7317 7.288 22.8807 6.375 22.8927 5.577C22.9047 4.779 22.8377 4.072 22.3447 3.46C20.8037 1.55 18.6367 1.022 16.9607 1.004C16.9087 1.00267 16.8567 1.00233 16.8047 1.003V1ZM16.7607 1.587C18.3457 1.572 20.3717 2.004 21.8257 3.807C22.1527 4.212 22.2497 4.804 22.2387 5.534C22.2267 6.263 22.0877 7.135 21.8337 8.091C21.3407 9.943 20.4087 12.101 19.0957 14.039C19.1423 14.0713 19.1927 14.0978 19.2457 14.118C19.5197 14.228 20.1437 14.322 21.3907 14.074C21.7037 14.009 21.9337 13.966 22.1717 14.142C22.2286 14.1893 22.2739 14.2491 22.3039 14.3167C22.3339 14.3844 22.3479 14.4581 22.3447 14.532C22.3315 14.6437 22.289 14.7499 22.2217 14.84C21.9817 15.191 21.5057 15.524 20.8957 15.798C20.3567 16.042 19.5827 16.169 18.8967 16.177C18.5527 16.18 18.2357 16.154 17.9667 16.073L17.9487 16.067C17.8447 17.038 17.6057 18.957 17.4507 19.832C17.3257 20.538 17.1077 21.099 16.6907 21.519C16.2747 21.939 15.6867 22.192 14.8947 22.357C13.9137 22.561 13.1987 22.341 12.7377 21.964C12.2777 21.589 12.0667 21.09 11.9397 20.784C11.8527 20.574 11.8077 20.301 11.7637 19.936C11.7153 19.499 11.683 19.0604 11.6667 18.621C11.638 17.8507 11.6287 17.0798 11.6387 16.309C11.2287 16.672 10.7187 16.914 10.1717 17.005C9.52169 17.112 8.93969 17.007 8.59269 16.923C8.42258 16.8811 8.25808 16.819 8.10269 16.738C7.94069 16.655 7.78769 16.561 7.68569 16.375C7.6256 16.2688 7.60639 16.1443 7.63169 16.025C7.66444 15.9038 7.73699 15.797 7.83769 15.722C8.02569 15.574 8.27269 15.492 8.64569 15.416C9.32569 15.281 9.56269 15.188 9.70669 15.077C9.82969 14.982 9.96869 14.79 10.2147 14.507L10.2117 14.47C9.77328 14.4571 9.3435 14.345 8.95469 14.142C8.81369 14.286 8.08969 15.029 7.20669 16.059C6.83569 16.49 6.42569 16.737 5.99269 16.755C5.55969 16.773 5.16869 16.561 4.83669 16.249C4.17169 15.623 3.64169 14.546 3.17969 13.329C2.71969 12.111 2.34369 10.755 2.07769 9.6C1.80969 8.445 1.65169 7.514 1.62969 7.065C1.52969 5.156 1.98969 3.87 2.77969 3.059C3.56969 2.248 4.65169 1.94 5.70769 1.882C7.60169 1.776 9.40069 2.417 9.76469 2.555C10.4657 2.093 11.3687 1.805 12.4977 1.823C13.0328 1.83044 13.5654 1.89752 14.0857 2.023L14.1047 2.015C14.334 1.937 14.5667 1.87167 14.8027 1.819C15.4452 1.67398 16.1011 1.59689 16.7597 1.589L16.7607 1.587ZM16.9037 2.201H16.7667C16.2256 2.20829 15.6865 2.26722 15.1567 2.377C16.2084 2.83508 17.1325 3.54289 17.8487 4.439C18.2826 4.9751 18.6425 5.56706 18.9187 6.199C19.0227 6.441 19.0927 6.646 19.1317 6.804C19.1517 6.884 19.1657 6.951 19.1697 7.021C19.1734 7.06531 19.1697 7.10992 19.1587 7.153L19.1527 7.165C19.1817 7.968 18.9767 8.512 18.9517 9.278C18.9327 9.834 19.0787 10.487 19.1147 11.198C19.1487 11.868 19.0657 12.603 18.6177 13.325C18.655 13.369 18.691 13.413 18.7257 13.457C19.9107 11.647 20.7657 9.643 21.2207 7.936C21.4637 7.016 21.5937 6.183 21.6047 5.523C21.6147 4.863 21.4877 4.384 21.3257 4.185C20.0577 2.612 18.3427 2.212 16.9037 2.201ZM12.3787 2.435C11.2617 2.437 10.4597 2.765 9.85269 3.255C9.22569 3.762 8.80569 4.455 8.52969 5.166C8.26254 5.87653 8.0992 6.62186 8.04469 7.379L8.05769 7.372C8.39469 7.188 8.83769 7.005 9.31169 6.899C9.78669 6.793 10.2977 6.76 10.7607 6.934C11.2237 7.108 11.6067 7.518 11.7457 8.14C12.4107 11.126 11.5387 12.236 11.2167 13.073C11.0959 13.3768 10.9917 13.6869 10.9047 14.002C10.9447 13.9907 10.985 13.9827 11.0257 13.978C11.2014 13.9685 11.3766 14.0029 11.5357 14.078C11.8597 14.208 12.0817 14.48 12.2017 14.792C12.233 14.8747 12.2554 14.9613 12.2687 15.052C12.282 15.09 12.2884 15.129 12.2877 15.169C12.2518 16.3108 12.2558 17.4535 12.2997 18.595C12.3217 19.089 12.3537 19.523 12.3947 19.866C12.4347 20.208 12.4927 20.468 12.5297 20.556C12.6497 20.85 12.8267 21.234 13.1467 21.495C13.4667 21.756 13.9237 21.929 14.7607 21.755C15.4867 21.604 15.9347 21.395 16.2347 21.092C16.5327 20.791 16.7117 20.372 16.8257 19.729C16.9967 18.766 17.3407 15.975 17.3817 15.449C17.3637 15.054 17.4237 14.749 17.5537 14.517C17.6887 14.279 17.8967 14.133 18.0757 14.054C18.1657 14.014 18.2497 13.988 18.3187 13.969C18.2452 13.8673 18.1685 13.7679 18.0887 13.671C17.8301 13.3685 17.6181 13.0291 17.4597 12.664C17.3834 12.5138 17.3023 12.3661 17.2167 12.221C17.0917 12.001 16.9327 11.726 16.7667 11.417C16.4337 10.798 16.0717 10.048 15.8837 9.317C15.6967 8.588 15.6687 7.833 16.1487 7.3C16.5747 6.827 17.3207 6.631 18.4417 6.741C18.4087 6.645 18.3887 6.565 18.3327 6.437C18.0797 5.85599 17.749 5.31202 17.3497 4.82C16.3997 3.642 14.8627 2.474 12.4867 2.436H12.3787V2.435ZM6.10269 2.482C5.98269 2.482 5.86269 2.48533 5.74269 2.492C4.78869 2.545 3.88669 2.814 3.24169 3.478C2.59469 4.141 2.16969 5.229 2.26169 7.031C2.28069 7.371 2.43369 8.327 2.69569 9.461C2.95769 10.597 3.32969 11.932 3.77569 13.111C4.22169 14.291 4.76369 15.318 5.27769 15.804C5.53669 16.047 5.76169 16.145 5.96569 16.137C6.17069 16.127 6.41669 16.013 6.71869 15.662C7.26869 15.0184 7.83897 14.3924 8.42869 13.785C8.01202 13.4356 7.69126 12.9858 7.49669 12.478C7.30371 11.975 7.24511 11.4305 7.32669 10.898C7.42369 10.22 7.43669 9.586 7.42569 9.086C7.41369 8.598 7.37769 8.274 7.37769 8.071V8.043C7.37666 6.98614 7.56602 5.93773 7.93669 4.948C8.20069 4.266 8.59469 3.573 9.18569 3.012C8.60569 2.827 7.57569 2.545 6.46069 2.492C6.3408 2.48558 6.22076 2.48225 6.10069 2.482H6.10269ZM17.8167 7.324C17.1757 7.332 16.8157 7.493 16.6267 7.703C16.3587 8.001 16.3337 8.523 16.4997 9.167C16.6657 9.811 17.0067 10.532 17.3287 11.13C17.4887 11.43 17.6447 11.7 17.7707 11.918C17.8977 12.138 17.9907 12.294 18.0467 12.428C18.1 12.5487 18.156 12.659 18.2147 12.759C18.4627 12.25 18.5077 11.751 18.4817 11.23C18.4487 10.586 18.2947 9.927 18.3177 9.26C18.3427 8.48 18.5017 7.971 18.5157 7.368C18.2837 7.33974 18.0504 7.32504 17.8167 7.324ZM10.0367 7.429C9.8408 7.43049 9.64565 7.45329 9.45469 7.497C9.07504 7.58651 8.70863 7.72501 8.36469 7.909C8.24936 7.969 8.13936 8.03867 8.03469 8.118L8.01469 8.136C8.02069 8.27 8.04769 8.595 8.05969 9.072C8.06969 9.595 8.05769 10.262 7.95369 10.982C7.72769 12.55 8.89969 13.848 10.2777 13.85C10.3577 13.528 10.4907 13.202 10.6227 12.858C11.0067 11.855 11.7617 11.124 11.1257 8.269C11.0217 7.802 10.8157 7.613 10.5317 7.506C10.3727 7.45078 10.205 7.4247 10.0367 7.429ZM17.5167 7.616H17.5647C17.6274 7.618 17.684 7.62467 17.7347 7.636C17.7807 7.64525 17.8247 7.66251 17.8647 7.687C17.8829 7.69773 17.8986 7.71218 17.9109 7.72941C17.9231 7.74665 17.9316 7.76627 17.9357 7.787V7.795C17.9383 7.83895 17.9264 7.88254 17.9017 7.919C17.8738 7.96942 17.8388 8.01556 17.7977 8.056C17.7008 8.15884 17.573 8.22729 17.4337 8.251C17.2971 8.26717 17.1593 8.23343 17.0457 8.156C17 8.12579 16.9586 8.08945 16.9227 8.048C16.8924 8.01562 16.8716 7.97547 16.8627 7.932C16.8605 7.91061 16.863 7.88901 16.8699 7.86865C16.8768 7.84829 16.888 7.82965 16.9027 7.814C16.9347 7.78044 16.9722 7.7527 17.0137 7.732C17.1721 7.65928 17.3435 7.61915 17.5177 7.614L17.5167 7.616ZM10.1287 7.77C10.1787 7.77 10.231 7.774 10.2857 7.782C10.4297 7.802 10.5587 7.839 10.6567 7.894C10.7047 7.91867 10.7467 7.951 10.7827 7.991C10.8014 8.013 10.8154 8.03733 10.8247 8.064C10.834 8.09067 10.837 8.11833 10.8337 8.147C10.8246 8.20002 10.7999 8.24912 10.7627 8.288C10.724 8.33458 10.6785 8.37504 10.6277 8.408C10.5035 8.49257 10.3528 8.52918 10.2037 8.511C10.0524 8.48657 9.91325 8.41314 9.80769 8.302C9.76381 8.25724 9.72614 8.20679 9.69569 8.152C9.66455 8.10405 9.65079 8.04687 9.65669 7.99C9.67069 7.89 9.75569 7.84 9.83669 7.81C9.93033 7.7803 10.0286 7.76809 10.1267 7.774L10.1287 7.77ZM18.6887 14.502H18.6857C18.5467 14.552 18.4327 14.572 18.3357 14.612C18.2391 14.6478 18.159 14.718 18.1107 14.809C18.0507 14.914 18.0007 15.101 18.0157 15.419C18.0588 15.4474 18.106 15.469 18.1557 15.483C18.3167 15.531 18.5877 15.563 18.8907 15.558C19.4927 15.551 20.2347 15.415 20.6287 15.237C20.9517 15.091 21.2517 14.901 21.5197 14.673C20.2027 14.937 19.4597 14.867 19.0027 14.684C18.89 14.638 18.7843 14.5774 18.6887 14.502ZM11.1007 14.587H11.0807C11.0307 14.591 10.9577 14.607 10.8177 14.759C10.4877 15.117 10.3737 15.341 10.1017 15.551C9.83169 15.761 9.47869 15.872 8.77469 16.012C8.55169 16.056 8.42469 16.105 8.33869 16.144C8.36669 16.166 8.36369 16.172 8.40469 16.193C8.50769 16.248 8.64069 16.296 8.74669 16.323C9.04969 16.396 9.54669 16.482 10.0657 16.396C10.5847 16.31 11.1237 16.069 11.5837 15.443C11.6637 15.335 11.6717 15.175 11.6067 15.003C11.5397 14.833 11.3957 14.685 11.2937 14.643C11.2328 14.6143 11.1676 14.5961 11.1007 14.589V14.587Z" fill="white"/>
</svg>
