<svg width="24" height="24" viewBox="0 0 24 24" fill="none" xmlns="http://www.w3.org/2000/svg">
<path d="M11.9999 12L7.43491 9.364M11.9999 12L16.5649 9.364M11.9999 12V17.272M7.43491 9.364L3.98891 7.375M7.43491 9.364C7.34491 9.518 7.29591 9.697 7.29591 9.881V14.118C7.29591 14.303 7.34591 14.48 7.43491 14.635M7.43491 9.364C7.52391 9.209 7.65291 9.078 7.81291 8.985L11.4829 6.867C11.6429 6.775 11.8209 6.728 11.9999 6.728M16.5649 9.364L20.0109 7.375M16.5649 9.364C16.4745 9.20656 16.3441 9.07581 16.1869 8.985L12.5169 6.867C12.3598 6.77591 12.1815 6.72795 11.9999 6.728M16.5649 9.364C16.6549 9.519 16.7039 9.697 16.7039 9.881V14.118C16.7039 14.302 16.6549 14.478 16.5679 14.632M11.9999 17.272V21.25M11.9999 17.272C12.1789 17.272 12.3569 17.225 12.5169 17.133L16.1869 15.015C16.3479 14.922 16.4779 14.788 16.5679 14.632M11.9999 17.272C11.8209 17.272 11.6429 17.225 11.4829 17.133L7.81291 15.015C7.65291 14.922 7.52391 14.79 7.43491 14.635M3.98991 16.625C4.16791 16.935 4.42691 17.198 4.74691 17.382L10.9649 20.972C11.2849 21.158 11.6429 21.25 11.9999 21.25M3.98991 16.625C3.808 16.3104 3.71212 15.9534 3.71191 15.59V8.41C3.71191 8.04 3.81091 7.684 3.98891 7.375M3.98991 16.625L7.43491 14.635M11.9999 21.25C12.3632 21.2501 12.7202 21.1546 13.0349 20.973L19.2529 17.383C19.5729 17.198 19.8329 16.934 20.0109 16.625M3.98891 7.375C4.16691 7.066 4.42691 6.802 4.74691 6.617L10.9649 3.027C11.2796 2.84543 11.6366 2.7499 11.9999 2.75M20.0109 16.625L16.7039 14.715L16.5679 14.632M20.0109 16.625C20.1889 16.315 20.2879 15.96 20.2879 15.59V8.41C20.2879 8.04 20.1889 7.684 20.0109 7.375M20.0109 7.375C19.829 7.06053 19.5676 6.79945 19.2529 6.618L13.0349 3.028C12.7203 2.84608 12.3633 2.7502 11.9999 2.75M11.9999 2.75V6.728" stroke="white" stroke-width="1.5" stroke-linecap="round" stroke-linejoin="round"/>
</svg>
