<svg width="24" height="24" viewBox="0 0 24 24" fill="none" xmlns="http://www.w3.org/2000/svg">
<path d="M6.5268 14.514C6.52495 15.035 6.31709 15.5342 5.94858 15.9025C5.58006 16.2708 5.08082 16.4784 4.5598 16.48C4.03843 16.4787 3.53878 16.2711 3.17002 15.9025C2.80126 15.5339 2.59338 15.0344 2.5918 14.513C2.5918 13.43 3.4768 12.545 4.5598 12.545H6.5268V14.514ZM7.5188 14.514C7.5188 13.431 8.4038 12.546 9.4868 12.546C10.5698 12.546 11.4538 13.431 11.4538 14.514V19.441C11.4525 19.9624 11.2448 20.462 10.8763 20.8308C10.5077 21.1996 10.0082 21.4074 9.4868 21.409C8.96526 21.4077 8.46546 21.1999 8.09667 20.8311C7.72788 20.4624 7.52012 19.9626 7.5188 19.441V14.514ZM9.4868 6.52702C8.96543 6.5257 8.46578 6.31807 8.09702 5.9495C7.72826 5.58093 7.52038 5.08138 7.5188 4.56002C7.5188 3.47702 8.4038 2.59302 9.4868 2.59302C10.5698 2.59302 11.4538 3.47702 11.4538 4.56002V6.52802L9.4868 6.52702ZM9.4868 7.51902C10.5698 7.51902 11.4538 8.40302 11.4538 9.48602C11.4525 10.0074 11.2448 10.507 10.8763 10.8758C10.5077 11.2446 10.0082 11.4524 9.4868 11.454H4.5598C4.03826 11.4527 3.53845 11.2449 3.16967 10.8761C2.80088 10.5074 2.59312 10.0076 2.5918 9.48602C2.5918 8.40302 3.4768 7.51902 4.5598 7.51902H9.4868ZM17.4728 9.48602C17.4728 8.40302 18.3578 7.51902 19.4408 7.51902C20.5238 7.51902 21.4088 8.40302 21.4088 9.48602C21.4075 10.0076 21.1997 10.5074 20.8309 10.8761C20.4621 11.2449 19.9623 11.4527 19.4408 11.454H17.4728V9.48602ZM16.4818 9.48602C16.4805 10.0076 16.2727 10.5074 15.9039 10.8761C15.5351 11.2449 15.0353 11.4527 14.5138 11.454C13.9923 11.4527 13.4925 11.2449 13.1237 10.8761C12.7549 10.5074 12.5471 10.0076 12.5458 9.48602V4.56002C12.5458 3.47702 13.4308 2.59302 14.5138 2.59302C15.5968 2.59302 16.4818 3.47702 16.4818 4.56002V9.48602ZM14.5138 17.473C15.5968 17.473 16.4818 18.358 16.4818 19.441C16.4805 19.9626 16.2727 20.4624 15.9039 20.8311C15.5351 21.1999 15.0353 21.4077 14.5138 21.409C13.9923 21.4077 13.4925 21.1999 13.1237 20.8311C12.7549 20.4624 12.5471 19.9626 12.5458 19.441V17.473H14.5138ZM14.5138 16.481C13.9924 16.4797 13.4928 16.2721 13.124 15.9035C12.7553 15.5349 12.5474 15.0354 12.5458 14.514C12.5458 13.431 13.4308 12.546 14.5138 12.546H19.4408C20.5238 12.546 21.4088 13.431 21.4088 14.514C21.4072 15.0354 21.1993 15.5349 20.8306 15.9035C20.4618 16.2721 19.9622 16.4797 19.4408 16.481H14.5138Z" fill="white"/>
</svg>
