<svg width="24" height="24" viewBox="0 0 24 24" fill="none" xmlns="http://www.w3.org/2000/svg">
<path d="M2.5 12C2.5 7.522 2.5 5.282 3.891 3.891C5.282 2.5 7.521 2.5 12 2.5C16.478 2.5 18.718 2.5 20.109 3.891C21.5 5.282 21.5 7.521 21.5 12C21.5 16.478 21.5 18.718 20.109 20.109C18.718 21.5 16.479 21.5 12 21.5C7.522 21.5 5.282 21.5 3.891 20.109C2.5 18.718 2.5 16.479 2.5 12Z" stroke="white" stroke-width="1.5" stroke-linecap="round" stroke-linejoin="round"/>
<path d="M18 12H16.2C15.8817 12 15.5765 12.1264 15.3515 12.3515C15.1264 12.5765 15 12.8817 15 13.2V13.8C15 14.1183 15.1264 14.4235 15.3515 14.6485C15.5765 14.8736 15.8817 15 16.2 15H16.8C17.1183 15 17.4235 15.1264 17.6485 15.3515C17.8736 15.5765 18 15.8817 18 16.2V16.8C18 17.1183 17.8736 17.4235 17.6485 17.6485C17.4235 17.8736 17.1183 18 16.8 18H15M8.5 12H10.5M10.5 12H12.5M10.5 12V18" stroke="white" stroke-width="1.5" stroke-linecap="round" stroke-linejoin="round"/>
</svg>
