<svg width="24" height="24" viewBox="0 0 24 24" fill="none" xmlns="http://www.w3.org/2000/svg">
<path d="M8.52463 4.62997L3.39263 3.71497C3.17419 3.67442 2.94873 3.69689 2.7426 3.77977C2.53647 3.86265 2.3582 4.0025 2.22863 4.18297C2.09246 4.36584 2.0132 4.58477 2.00075 4.81242C1.9883 5.04008 2.04322 5.26635 2.15863 5.46297L11.0596 21.043C11.1634 21.2246 11.3135 21.3754 11.4946 21.48C11.6757 21.5846 11.8813 21.6393 12.0905 21.6385C12.2996 21.6377 12.5048 21.5814 12.6851 21.4753C12.8653 21.3693 13.0143 21.2174 13.1166 21.035L21.8456 5.45697C22.3356 4.58197 21.5836 3.53997 20.6036 3.71797L16.0296 4.53097L15.8236 5.28497L20.7296 4.41397C20.8179 4.39811 20.9089 4.40764 20.992 4.44144C21.0751 4.47525 21.1469 4.53195 21.1991 4.60495C21.2513 4.67795 21.2816 4.76425 21.2867 4.85383C21.2917 4.9434 21.2713 5.03257 21.2276 5.11097L12.4996 20.689C12.4516 20.7757 12.3774 20.8451 12.2876 20.8871C12.1978 20.9291 12.097 20.9417 11.9996 20.923C11.9317 20.9108 11.8672 20.8838 11.8109 20.8438C11.7545 20.8039 11.7077 20.7521 11.6736 20.692L2.77163 5.11197C2.72732 5.03366 2.70622 4.94436 2.71079 4.8545C2.71536 4.76464 2.74541 4.67794 2.79743 4.60453C2.84945 4.53111 2.92129 4.47402 3.00455 4.43992C3.08781 4.40583 3.17906 4.39613 3.26763 4.41197L8.40063 5.32797L8.47463 5.34097L8.52463 4.62997Z" fill="white"/>
<path d="M15.0975 5.25999L15.2595 4.66699L14.6595 4.77399L15.0975 5.25999ZM9.21748 4.75399L9.73048 4.84399L9.18848 5.27099L9.21748 4.75399Z" fill="white"/>
<path d="M15.5491 2.367L9.44908 3.627C9.39947 3.63739 9.35496 3.66459 9.32308 3.704C9.29043 3.74447 9.2712 3.7941 9.26808 3.846L8.89308 10.531C8.89073 10.5672 8.89662 10.6035 8.9103 10.6371C8.92398 10.6707 8.94511 10.7007 8.97208 10.725C8.9978 10.749 9.02913 10.7662 9.0632 10.7749C9.09727 10.7836 9.13299 10.7837 9.16708 10.775L10.8651 10.361C11.0251 10.323 11.1671 10.471 11.1351 10.639L10.6301 13.245C10.5961 13.421 10.7521 13.571 10.9151 13.519L11.9641 13.183C12.1261 13.131 12.2831 13.281 12.2481 13.457L11.4471 17.55C11.3971 17.807 11.7191 17.946 11.8541 17.727L11.9441 17.58L16.9141 7.116C16.9981 6.941 16.8541 6.741 16.6721 6.778L14.9241 7.134C14.7591 7.168 14.6201 7.006 14.6661 6.837L15.8061 2.664C15.8531 2.494 15.7131 2.333 15.5491 2.367Z" fill="white"/>
</svg>
